<?xml version="1.0" standalone="no"?>
<!DOCTYPE svg PUBLIC "-//W3C//DTD SVG 20010904//EN"
 "http://www.w3.org/TR/2001/REC-SVG-20010904/DTD/svg10.dtd">
<svg version="1.0" xmlns="http://www.w3.org/2000/svg"
 width="700.000000pt" height="700.000000pt" viewBox="0 0 700.000000 700.000000"
 preserveAspectRatio="xMidYMid meet">
<metadata>
Created by potrace 1.14, written by Peter Selinger 2001-2017
</metadata>
<g transform="translate(0.000000,700.000000) scale(0.100000,-0.100000)"
fill="#000000" stroke="none">
<path d="M2720 5829 c-133 -22 -279 -131 -338 -253 -46 -94 -52 -144 -52 -421
l0 -255 -382 0 c-410 0 -436 -3 -533 -53 -102 -52 -183 -146 -228 -265 l-22
-57 0 -1375 0 -1375 22 -57 c61 -161 188 -274 343 -307 41 -9 537 -11 2005 -9
l1950 3 75 36 c125 61 203 147 253 277 l22 57 0 1375 0 1375 -22 57 c-50 130
-128 216 -253 277 l-75 36 -407 3 -408 3 0 254 c0 146 -5 276 -11 307 -38 185
-201 338 -389 368 -81 12 -1471 11 -1550 -1z m1480 -699 l0 -230 -700 0 -700
0 0 230 0 230 700 0 700 0 0 -230z m1160 -1165 l0 -465 -345 0 -345 0 0 235 0
235 -235 0 -235 0 0 -235 0 -235 -700 0 -700 0 0 235 0 235 -235 0 -235 0 0
-235 0 -235 -345 0 -345 0 0 465 0 465 1860 0 1860 0 0 -465z m-3030 -1170 l0
-235 235 0 235 0 0 235 0 235 700 0 700 0 0 -235 0 -235 235 0 235 0 0 235 0
235 345 0 345 0 0 -580 0 -580 -1860 0 -1860 0 0 580 0 580 345 0 345 0 0
-235z"/>
</g>
</svg>
