<svg xmlns="http://www.w3.org/2000/svg" version="1.1" xmlns:xlink="http://www.w3.org/1999/xlink" xmlns:svgjs="http://svgjs.dev/svgjs" viewBox="0 0 800 800"><defs><filter id="llleaves-blur-2" x="-100%" y="-100%" width="400%" height="400%"><feGaussianBlur in="SourceGraphic" stdDeviation="2"></feGaussianBlur></filter><filter id="llleaves-blur-3" x="-100%" y="-100%" width="400%" height="400%"><feGaussianBlur in="SourceGraphic" stdDeviation="4"></feGaussianBlur></filter><filter id="llleaves-blur-4" x="-100%" y="-100%" width="400%" height="400%"><feGaussianBlur in="SourceGraphic" stdDeviation="12"></feGaussianBlur></filter></defs><g fill="hsl(305, 77%, 40%)"><path d="M568 20H618C646 20 668 42 668 70H618C590 70 568 48 568 20Z " transform="matrix(-0.16688376360342888,0.23833471434785936,-0.23833471434785936,-0.16688376360342888,731.8592280525727,-94.78108410482278)" filter="url(#llleaves-blur-3)" opacity="0.45"></path><path d="M6 35H56C84 35 106 57 106 85H56C28 85 6 63 6 35Z " transform="matrix(-0.28940240418485935,0.16041837215186028,-0.16041837215186028,-0.28940240418485935,81.83163696346374,68.38071541058738)" filter="url(#llleaves-blur-2)" opacity="0.51"></path><path d="M344 648H394C422 648 444 670 444 698H394C366 698 344 676 344 648Z " transform="matrix(0.04218308292218899,0.21701314865335586,-0.21701314865335586,0.04218308292218899,523.429714372366,559.1076046239447)" filter="url(#llleaves-blur-3)" opacity="0.34"></path><path d="M594 524H644C672 524 694 546 694 574H644C616 574 594 552 594 524Z " transform="matrix(-0.2726278534211256,0.17704659812881682,-0.17704659812881682,-0.2726278534211256,916.7709199759254,584.6546823332399)" filter="url(#llleaves-blur-2)" opacity="0.50"></path><path d="M103 426H153C181 426 203 448 203 476H153C125 476 103 454 103 426Z " transform="matrix(-0.09680373051733757,0.2521823397922817,-0.2521823397922817,-0.09680373051733757,281.5452060154717,456.07458447510015)" filter="url(#llleaves-blur-3)" opacity="0.41"></path><path d="M686 13H736C764 13 786 35 786 63H736C708 63 686 41 686 13Z " transform="matrix(-0.3495206852184152,0.07429291508257643,-0.07429291508257643,-0.3495206852184152,996.0703550938915,-3.3977994624764847)" filter="url(#llleaves-blur-2)" opacity="0.55"></path><path d="M307 135H357C385 135 407 157 407 185H357C329 185 307 163 307 135Z " transform="matrix(0.06205892981155868,0.20298561307446017,-0.20298561307446017,0.06205892981155868,367.3226601491872,77.60470736256833)" filter="url(#llleaves-blur-3)" opacity="0.32"></path><path d="M694 252H744C772 252 794 274 794 302H744C716 302 694 280 694 252Z " transform="matrix(-0.38078422852297117,-0.03331430324522469,0.03331430324522469,-0.38078422852297117,1018.0754040221633,407.2630729153102)" filter="url(#llleaves-blur-2)" opacity="0.59"></path><path d="M128 24H178C206 24 228 46 228 74H178C150 74 128 52 128 24Z " transform="matrix(-0.016966695289728027,0.24263504681772669,-0.24263504681772669,-0.016966695289728027,192.90918905564018,6.642329735641319)" filter="url(#llleaves-blur-3)" opacity="0.37"></path><path d="M223 536H273C301 536 323 558 323 586H273C245 586 223 564 223 536Z " transform="matrix(0.03503833321177202,0.2212233293875144,-0.2212233293875144,0.03503833321177202,387.5408228195818,480.94952614540443)" filter="url(#llleaves-blur-3)" opacity="0.34"></path><path d="M376 256H426C454 256 476 278 476 306H426C398 306 376 284 376 256Z " transform="matrix(0.02380657751521896,0.2265044548874939,-0.2265044548874939,0.02380657751521896,479.5061498019025,177.81945393615106)" filter="url(#llleaves-blur-3)" opacity="0.35"></path><path d="M63 629H113C141 629 163 651 163 679H113C85 679 63 657 63 629Z " transform="matrix(-0.20149508986265524,0.22378296847809773,-0.22378296847809773,-0.20149508986265524,282.123006539156,760.4903133321515)" filter="url(#llleaves-blur-2)" opacity="0.46"></path><path d="M-5 400H45C73 400 95 422 95 450H45C17 450 -5 428 -5 400Z " transform="matrix(-0.33409090972070643,0.10214184149805547,-0.10214184149805547,-0.33409090972070643,103.44437357410536,562.3922537638878)" filter="url(#llleaves-blur-2)" opacity="0.54"></path><path d="M459 28H509C537 28 559 50 559 78H509C481 78 459 56 459 28Z " transform="matrix(1.452883720842772e-17,0.23727391797444394,-0.23727391797444394,1.452883720842772e-17,521.5755176526455,-67.77242424899197)" filter="url(#llleaves-blur-3)" opacity="0.36"></path><path d="M21 497H71C99 497 121 519 121 547H71C43 547 21 525 21 497Z " transform="matrix(-0.2721452848077779,0.17673321440707004,-0.17673321440707004,-0.2721452848077779,182.57705314184278,651.5117804467582)" filter="url(#llleaves-blur-2)" opacity="0.50"></path><path d="M190 331H240C268 331 290 353 290 381H240C212 381 190 359 190 331Z " transform="matrix(0.012188690213341282,0.23257406400513952,-0.23257406400513952,0.012188690213341282,319.8710811346278,295.84305092281704)" filter="url(#llleaves-blur-3)" opacity="0.36"></path><path d="M253 635H303C331 635 353 657 353 685H303C275 685 253 663 253 635Z " transform="matrix(0.045473645959994924,0.21393668397115526,-0.21393668397115526,0.045473645959994924,430.419696695084,565.1645784231433)" filter="url(#llleaves-blur-3)" opacity="0.33"></path><path d="M695 332H745C773 332 795 354 795 382H745C717 382 695 360 695 332Z " transform="matrix(-0.38078422852297117,-0.03331430324522469,0.03331430324522469,-0.38078422852297117,1016.7910439910682,517.759125500393)" filter="url(#llleaves-blur-2)" opacity="0.59"></path><path d="M291 331H341C369 331 391 353 391 381H341C313 381 291 359 291 331Z " transform="matrix(0.04882963978195899,0.21150440666554127,-0.21150440666554127,0.04882963978195899,399.6446616072846,266.49364556467305)" filter="url(#llleaves-blur-3)" opacity="0.33"></path><path d="M506 124H556C584 124 606 146 606 174H556C528 174 506 152 506 124Z " transform="matrix(-0.11170164696139079,0.25088600678094997,-0.25088600678094997,-0.11170164696139079,655.4881307208948,26.150925627039058)" filter="url(#llleaves-blur-3)" opacity="0.42"></path><path d="M490 534H540C568 534 590 556 590 584H540C512 584 490 562 490 534Z " transform="matrix(-0.10172692666986044,0.2517829788390151,-0.2517829788390151,-0.10172692666986044,735.6792255727341,479.9025434353838)" filter="url(#llleaves-blur-3)" opacity="0.42"></path><path d="M196 440H246C274 440 296 462 296 490H246C218 490 196 468 196 440Z " transform="matrix(0.012188690213341282,0.23257406400513952,-0.23257406400513952,0.012188690213341282,351.14852196990796,402.11903930553194)" filter="url(#llleaves-blur-3)" opacity="0.36"></path><path d="M700 571H750C778 571 800 593 800 621H750C722 621 700 599 700 571Z " transform="matrix(-0.38078422852297117,-0.03331430324522469,0.03331430324522469,-0.38078422852297117,1015.7328466580744,847.9331276336092)" filter="url(#llleaves-blur-2)" opacity="0.59"></path><path d="M356 31H406C434 31 456 53 456 81H406C378 81 356 59 356 31Z " transform="matrix(0.07352078337914746,0.1915281888087388,-0.1915281888087388,0.07352078337914746,386.8761405213555,-25.8776085255802)" filter="url(#llleaves-blur-3)" opacity="0.31"></path><path d="M448 435H498C526 435 548 457 548 485H498C470 485 448 463 448 435Z " transform="matrix(-0.03471271063670253,0.24699377024627764,-0.24699377024627764,-0.03471271063670253,628.9040642103655,352.9649493102369)" filter="url(#llleaves-blur-3)" opacity="0.38"></path><path d="M383 368H433C461 368 483 390 483 418H433C405 418 383 396 383 368Z " transform="matrix(0.02380657751521896,0.2265044548874939,-0.2265044548874939,0.02380657751521896,511.7080027066952,285.5675860702341)" filter="url(#llleaves-blur-3)" opacity="0.35"></path><path d="M609 105H659C687 105 709 127 709 155H659C631 155 609 133 609 105Z " transform="matrix(-0.28120921445707586,0.1689675426749327,-0.1689675426749327,-0.28120921445707586,866.2826528749542,55.207587256639215)" filter="url(#llleaves-blur-2)" opacity="0.50"></path><path d="M407 146H457C485 146 507 168 507 196H457C429 196 407 174 407 146Z " transform="matrix(0.004107344464668559,0.23530960678517568,-0.23530960678517568,0.004107344464668559,495.3608863399115,62.761153795716396)" filter="url(#llleaves-blur-3)" opacity="0.36"></path><path d="M197 132H247C275 132 297 154 297 182H247C219 182 197 160 197 132Z " transform="matrix(0.027628447308269192,0.22501564614558645,-0.22501564614558645,0.027628447308269192,275.5032299597146,97.08346917464189)" filter="url(#llleaves-blur-3)" opacity="0.35"></path><path d="M420 719H470C498 719 520 741 520 769H470C442 769 420 747 420 719Z " transform="matrix(-0.01695564522759114,0.2424770235669911,-0.2424770235669911,-0.01695564522759114,658.3720587908091,642.650798972842)" filter="url(#llleaves-blur-3)" opacity="0.37"></path></g><g fill="none" stroke-width="3" stroke="hsl(305, 77%, 40%)"><path d="M588 203H638C666 203 688 225 688 253H638C610 253 588 231 588 203Z " transform="matrix(-0.2726278534211256,0.17704659812881682,-0.17704659812881682,-0.2726278534211256,852.3031948560484,177.2034209738315)" filter="url(#llleaves-blur-2)" opacity="0.50"></path><path d="M139 726H189C217 726 239 748 239 776H189C161 776 139 754 139 726Z " transform="matrix(-0.04390403173436598,0.24899213698302883,-0.24899213698302883,-0.04390403173436598,384.29095687204983,736.9124139427164)" filter="url(#llleaves-blur-3)" opacity="0.39"></path><path d="M488 338H538C566 338 588 360 588 388H538C510 388 488 366 488 338Z " transform="matrix(-0.10172692666986044,0.2517829788390151,-0.2517829788390151,-0.10172692666986044,684.1263078669475,264.4676317657692)" filter="url(#llleaves-blur-3)" opacity="0.42"></path><path d="M160 633H210C238 633 260 655 260 683H210C182 683 160 661 160 633Z " transform="matrix(-0.021383513495435734,0.24441467766963332,-0.24441467766963332,-0.021383513495435734,375.3153957406603,620.7432695693738)" filter="url(#llleaves-blur-3)" opacity="0.37"></path><path d="M90 123H140C168 123 190 145 190 173H140C112 173 90 151 90 123Z " transform="matrix(-0.10658273331575387,0.251093184437881,-0.251093184437881,-0.10658273331575387,192.08337396101194,128.62119870942823)" filter="url(#llleaves-blur-3)" opacity="0.42"></path><path d="M692 490H742C770 490 792 512 792 540H742C714 540 692 518 692 490Z " transform="matrix(-0.38078422852297117,-0.03331430324522469,0.03331430324522469,-0.38078422852297117,1007.385031392754,735.823090697287)" filter="url(#llleaves-blur-2)" opacity="0.59"></path><path d="M588 304H638C666 304 688 326 688 354H638C610 354 588 332 588 304Z " transform="matrix(-0.2726278534211256,0.17704659812881682,-0.17704659812881682,-0.2726278534211256,870.184901267059,305.7388341693652)" filter="url(#llleaves-blur-2)" opacity="0.50"></path><path d="M229 728H279C307 728 329 750 329 778H279C251 778 229 756 229 728Z " transform="matrix(0.03503833321177202,0.2212233293875144,-0.2212233293875144,0.03503833321177202,435.805472062714,664.8948261924191)" filter="url(#llleaves-blur-3)" opacity="0.34"></path><path d="M126 229H176C204 229 226 251 226 279H176C148 279 126 257 126 229Z " transform="matrix(-0.06757931105394177,0.25220942239381167,-0.25220942239381167,-0.06757931105394177,251.95515203352193,226.77628666639035)" filter="url(#llleaves-blur-3)" opacity="0.40"></path><path d="M0 166H50C78 166 100 188 100 216H50C22 216 0 194 0 166Z " transform="matrix(-0.3052260680206361,0.14232925298656116,-0.14232925298656116,-0.3052260680206361,92.446190721465,242.18171634261344)" filter="url(#llleaves-blur-2)" opacity="0.52"></path><path d="M55 732H105C133 732 155 754 155 782H105C77 782 55 760 55 732Z " transform="matrix(-0.20149508986265524,0.22378296847809773,-0.22378296847809773,-0.20149508986265524,295.5606915734988,886.0345713358297)" filter="url(#llleaves-blur-2)" opacity="0.46"></path><path d="M384 495H434C462 495 484 517 484 545H434C406 545 384 523 384 495Z " transform="matrix(0.012151928092811085,0.2318726009583721,-0.2318726009583721,0.012151928092811085,549.2998157060734,413.04828857580475)" filter="url(#llleaves-blur-3)" opacity="0.35"></path><path d="M419 603H469C497 603 519 625 519 653H469C441 653 419 631 419 603Z " transform="matrix(-0.01695564522759114,0.2424770235669911,-0.2424770235669911,-0.01695564522759114,629.2277684118106,524.9264211500084)" filter="url(#llleaves-blur-3)" opacity="0.37"></path><path d="M700 736H750C778 736 800 758 800 786H750C722 786 700 764 700 736Z " transform="matrix(-0.38437416466175506,-0.07471476895150422,0.07471476895150422,-0.38437416466175506,981.4226843242216,1109.5448160212238)" filter="url(#llleaves-blur-2)" opacity="0.60"></path><path d="M316 552H366C394 552 416 574 416 602H366C338 602 316 580 316 552Z " transform="matrix(0.04894095902331912,0.2119865832738363,-0.2119865832738363,0.04894095902331912,470.4038675464687,471.17397716532076)" filter="url(#llleaves-blur-3)" opacity="0.33"></path><path d="M294 439H344C372 439 394 461 394 489H344C316 489 294 467 294 439Z " transform="matrix(0.04882963978195899,0.21150440666554127,-0.21150440666554127,0.04882963978195899,425.34064860781723,368.5855312482248)" filter="url(#llleaves-blur-3)" opacity="0.33"></path><path d="M513 634H563C591 634 613 656 613 684H563C535 684 513 662 513 634Z " transform="matrix(-0.13135494742542425,0.2470427259771716,-0.2470427259771716,-0.13135494742542425,799.7539918194698,606.477855628207)" filter="url(#llleaves-blur-3)" opacity="0.43"></path><path d="M322 733H372C400 733 422 755 422 783H372C344 783 322 761 322 733Z " transform="matrix(0.04551341504529608,0.21412378280728947,-0.21412378280728947,0.04551341504529608,517.3748369710752,643.8467841913539)" filter="url(#llleaves-blur-3)" opacity="0.33"></path><path d="M84 329H134C162 329 184 351 184 379H134C106 379 84 357 84 329Z " transform="matrix(-0.13137540007543877,0.2470811918173404,-0.2470811918173404,-0.13137540007543877,239.0710455134473,367.39801192318174)" filter="url(#llleaves-blur-3)" opacity="0.43"></path><path d="M708 412H758C786 412 808 434 808 462H758C730 462 708 440 708 412Z " transform="matrix(-0.38437416466175506,-0.07471476895150422,0.07471476895150422,-0.38437416466175506,1016.705262781803,661.6053048224271)" filter="url(#llleaves-blur-2)" opacity="0.60"></path><path d="M607 622H657C685 622 707 644 707 672H657C629 672 607 650 607 622Z " transform="matrix(-0.3007319862576268,0.14667679012198534,-0.14667679012198534,-0.3007319862576268,949.4807981801855,745.2069439985402)" filter="url(#llleaves-blur-2)" opacity="0.51"></path><path d="M245 28H295C323 28 345 50 345 78H295C267 78 245 56 245 28Z " transform="matrix(0.08177358453661072,0.18366647800319283,-0.18366647800319283,0.08177358453661072,280.61111589586903,-5.515610991382246)" filter="url(#llleaves-blur-3)" opacity="0.31"></path><path d="M122 536H172C200 536 222 558 222 586H172C144 586 122 564 122 536Z " transform="matrix(-0.06757931105394177,0.25220942239381167,-0.25220942239381167,-0.06757931105394177,325.1131274642063,555.5319728495257)" filter="url(#llleaves-blur-3)" opacity="0.40"></path><path d="M510 730H560C588 730 610 752 610 780H560C532 780 510 758 510 730Z " transform="matrix(-0.13135494742542425,0.2470427259771716,-0.2470427259771716,-0.13135494742542425,820.0760286710022,715.8290587589793)" filter="url(#llleaves-blur-3)" opacity="0.43"></path><path d="M-12 580H38C66 580 88 602 88 630H38C10 630 -12 608 -12 580Z " transform="matrix(-0.33409090972070643,0.10214184149805547,-0.10214184149805547,-0.33409090972070643,112.49126867571042,803.2436104041012)" filter="url(#llleaves-blur-2)" opacity="0.54"></path><path d="M254 231H304C332 231 354 253 354 281H304C276 281 254 259 254 231Z " transform="matrix(0.045473645959994924,0.21393668397115526,-0.21393668397115526,0.045473645959994924,344.9438027247773,179.3219947070101)" filter="url(#llleaves-blur-3)" opacity="0.33"></path><path d="M604 723H654C682 723 704 745 704 773H654C626 773 604 751 604 723Z " transform="matrix(-0.3007319862576268,0.14667679012198534,-0.14667679012198534,-0.3007319862576268,960.392958023733,877.0209049809265)" filter="url(#llleaves-blur-2)" opacity="0.51"></path><path d="M707 89H757C785 89 807 111 807 139H757C729 139 707 117 707 89Z " transform="matrix(-0.381936294642145,-0.04014312216856857,0.04014312216856857,-0.381936294642145,1041.5494591168867,187.92908107081095)" filter="url(#llleaves-blur-2)" opacity="0.59"></path><path d="M696 172H746C774 172 796 194 796 222H746C718 222 696 200 696 172Z " transform="matrix(-0.38078422852297117,-0.03331430324522469,0.03331430324522469,-0.38078422852297117,1023.5021167388271,296.86696323996296)" filter="url(#llleaves-blur-2)" opacity="0.59"></path><path d="M-16 705H34C62 705 84 727 84 755H34C6 755 -16 733 -16 705Z " transform="matrix(-0.33409090972070643,0.10214184149805547,-0.10214184149805547,-0.33409090972070643,119.92263522408454,970.4135414851817)" filter="url(#llleaves-blur-2)" opacity="0.54"></path><path d="M700 656H750C778 656 800 678 800 706H750C722 706 700 684 700 656Z " transform="matrix(-0.38437416466175506,-0.07471476895150422,0.07471476895150422,-0.38437416466175506,987.399865840342,998.7948828482836)" filter="url(#llleaves-blur-2)" opacity="0.60"></path><path d="M535 440H585C613 440 635 462 635 490H585C557 490 535 468 535 440Z " transform="matrix(-0.1870594148624419,0.23099913951674014,-0.23099913951674014,-0.1870594148624419,801.8443575698127,416.84813129374254)" filter="url(#llleaves-blur-3)" opacity="0.45"></path><path d="M0 278H50C78 278 100 300 100 328H50C22 328 0 306 0 278Z " transform="matrix(-0.3052260680206361,0.14232925298656116,-0.14232925298656116,-0.3052260680206361,108.38706705595983,388.3670359609246)" filter="url(#llleaves-blur-2)" opacity="0.52"></path><path d="M485 235H535C563 235 585 257 585 285H535C507 285 485 263 485 235Z " transform="matrix(-0.10172692666986044,0.2517829788390151,-0.2517829788390151,-0.10172692666986044,654.8874802665192,151.74510725529063)" filter="url(#llleaves-blur-3)" opacity="0.42"></path><path d="M613 405H663C691 405 713 427 713 455H663C635 455 613 433 613 405Z " transform="matrix(-0.3007319862576268,0.14667679012198534,-0.14667679012198534,-0.3007319862576268,925.4563266412604,462.0680422399032)" filter="url(#llleaves-blur-2)" opacity="0.51"></path></g></svg>